<?xml version="1.0" ?><!DOCTYPE svg  PUBLIC '-//W3C//DTD SVG 1.1//EN'  'http://www.w3.org/Graphics/SVG/1.1/DTD/svg11.dtd' [
	<!ENTITY stroke_color "#000">
	<!ENTITY fill_color "#888">
]><svg height="55px" viewBox="0 0 45 45" width="55px" xmlns="http://www.w3.org/2000/svg" xmlns:xlink="http://www.w3.org/1999/xlink" stroke-linecap="round" stroke-linejoin="round" stroke-width="3.5" stroke="&stroke_color;" fill="&fill_color;">
  <g
     id="g4008">
    <rect
       width="2.9990001"
       height="20.999001"
       x="13.499"
       y="-26.247999"
       transform="scale(1,-1)"
       id="rect88"
       style="fill:&fill_color;;fill-opacity:1;stroke:&stroke_color;;stroke-width:0.5;" />
    <rect
       width="3"
       height="35.997002"
       x="29.993"
       y="-41.244999"
       transform="scale(1,-1)"
       id="rect90"
       style="fill:&fill_color;;fill-opacity:1;stroke:&stroke_color;;stroke-width:0.5;" />
    <rect
       width="19.499001"
       height="2.9979999"
       x="13.5"
       y="-8.2509985"
       transform="scale(1,-1)"
       id="rect92"
       style="fill:&fill_color;;fill-opacity:1;stroke:&stroke_color;;stroke-width:0.5;" />
    <rect
       width="26.997999"
       height="2.9979999"
       x="14.246"
       y="-26.252001"
       transform="scale(1,-1)"
       id="rect94"
       style="fill:&fill_color;;fill-opacity:1;stroke:&stroke_color;;stroke-width:0.5;" />
  </g>
  <path
     d="m 15.123972,31.438026 c -0.2212,0 -0.4396,-0.014 -0.6548,-0.04 l 0.5552,0.9396 0.5472,-0.9252 c -0.1484,0.012 -0.2964,0.0256 -0.4476,0.0256 z"
     id="path4165"
     style="fill:#ffffff;fill-opacity:1;stroke:&stroke_color;;stroke-width:1.20000005;stroke-miterlimit:4;stroke-opacity:1;stroke-dasharray:none" />
  <g
     transform="matrix(0.40000001,0,0,0.40000001,4.1003991,12.078226)"
     id="g4167"
     style="fill:#ffffff;fill-opacity:1;stroke:&stroke_color;;stroke-width:3;stroke-miterlimit:4;stroke-opacity:1;stroke-dasharray:none">
    <path
       d="m 40.16,11.726 c -2.164,0 -3.958,1.555 -4.343,3.607 1.859,1.345 3.457,3.115 4.675,5.208 2.285,-0.172 4.094,-2.061 4.094,-4.39 0,-2.444 -1.982,-4.425 -4.426,-4.425 z"
       id="path4169"
       style="fill:#ffffff;fill-opacity:1;stroke:&stroke_color;;stroke-width:3;stroke-miterlimit:4;stroke-opacity:1;stroke-dasharray:none" />
    <path
       d="m 40.713,39.887 c -1.224,2.232 -2.86,4.131 -4.797,5.556 0.521,1.864 2.213,3.239 4.244,3.239 2.443,0 4.426,-1.98 4.426,-4.424 0,-2.255 -1.693,-4.096 -3.873,-4.371 z"
       id="path4171"
       style="fill:#ffffff;fill-opacity:1;stroke:&stroke_color;;stroke-width:3;stroke-miterlimit:4;stroke-opacity:1;stroke-dasharray:none" />
    <path
       d="m 14.273,39.871 c -2.253,0.206 -4.024,2.079 -4.024,4.387 0,2.443 1.98,4.424 4.424,4.424 2.064,0 3.784,-1.42 4.272,-3.332 -1.883,-1.416 -3.475,-3.289 -4.672,-5.479 z"
       id="path4173"
       style="fill:#ffffff;fill-opacity:1;stroke:&stroke_color;;stroke-width:3;stroke-miterlimit:4;stroke-opacity:1;stroke-dasharray:none" />
    <path
       d="m 19.026,15.437 c -0.343,-2.103 -2.154,-3.711 -4.353,-3.711 -2.444,0 -4.424,1.981 -4.424,4.424 0,2.382 1.886,4.31 4.245,4.406 1.186,-2.043 2.732,-3.784 4.532,-5.119 z"
       id="path4175"
       style="fill:#ffffff;fill-opacity:1;stroke:&stroke_color;;stroke-width:3;stroke-miterlimit:4;stroke-opacity:1;stroke-dasharray:none" />
  </g>
  <path
     d="m 15.123972,17.151626 c 0.7632,0 1.4912,0.1644 2.1672,0.4512 0.2964,-0.4304 0.4712,-0.9508 0.4712,-1.5132 0,-1.4748 -1.1956,-2.6708 -2.6708,-2.6708 -1.4748,0 -2.6704,1.196 -2.6704,2.6708 0,0.5712 0.1808,1.0996 0.4864,1.5336 0.6896,-0.2996 1.4348,-0.4716 2.2164,-0.4716 z"
     id="path4177"
     style="fill:#ffffff;fill-opacity:1;stroke:&stroke_color;;stroke-width:1.20000005;stroke-miterlimit:4;stroke-opacity:1;stroke-dasharray:none" />
  <g
     transform="matrix(0.40000001,0,0,0.40000001,4.1251711,12.126426)"
     id="g4179"
     style="fill:#ffffff;fill-opacity:1;stroke:&stroke_color;;stroke-width:3;stroke-miterlimit:4;stroke-opacity:1;stroke-dasharray:none">
    <path
       d="m 43.102,30.421 c 0,4.7344 -1.6452,9.2798 -4.5706,12.6275 -2.9254,3.3478 -6.8973,5.2305 -11.0344,5.2305 -4.1371,0 -8.109,-1.8827 -11.0344,-5.2305 -2.9254,-3.3477 -4.5706,-7.8931 -4.5706,-12.6275 0,-9.7966 7.0444,-17.858 15.605,-17.858 8.5606,0 15.605,8.0614 15.605,17.858 z"
       id="path4181"
       style="fill:#ffffff;fill-opacity:1;stroke:&stroke_color;;stroke-width:3;stroke-miterlimit:4;stroke-opacity:1;stroke-dasharray:none" />
  </g>
  <g
     transform="matrix(0.40000001,0,0,0.40000001,4.1251711,12.126426)"
     id="g4183"
     style="fill:&stroke_color;;fill-opacity:1;stroke:none">
    <path
       d="m 25.875,33.75 -1.542,-4.625 3.164,-2.587 3.615,2.626 -1.487,4.669 -3.75,-0.083 z"
       id="path4185"
       style="fill:&stroke_color;;fill-opacity:1;stroke:none" />
    <path
       d="m 27.501,41.551 c -3.968,-0.16 -5.543,-2.009 -5.543,-2.009 l 3.57,-4.163 4.465,0.168 3.132,4.12 c 0,0 -2.89,1.994 -5.624,1.884 z"
       id="path4187"
       style="fill:&stroke_color;;fill-opacity:1;stroke:none" />
    <path
       d="m 18.453,33.843 c -0.849,-2.968 0.172,-6.884 0.172,-6.884 l 4,2.167 1.493,4.629 -3.582,4.233 c 0,-10e-4 -1.465,-1.99 -2.083,-4.145 z"
       id="path4189"
       style="fill:&stroke_color;;fill-opacity:1;stroke:none" />
    <path
       d="m 19.458,25.125 c 0,0 0.5,-1.958 3.039,-3.822 2.237,-1.643 4.465,-1.72 4.465,-1.72 l -0.037,4.981 -3.521,2.75 -3.946,-2.189 z"
       id="path4191"
       style="fill:&stroke_color;;fill-opacity:1;stroke:none" />
    <path
       d="M 32.084,27.834 28.625,24.959 29,19.75 c 0,0 1.834,-0.042 3.959,1.667 2.228,1.791 3.362,4.983 3.362,4.983 l -4.237,1.434 z"
       id="path4193"
       style="fill:&stroke_color;;fill-opacity:1;stroke:none" />
    <path
       d="m 31.292,34.042 1.313,-4.464 4.187,-1.536 c 0,0 0.677,2.663 -0.042,5.667 -0.54,2.256 -2.084,4.361 -2.084,4.361 l -3.374,-4.028 z"
       id="path4195"
       style="fill:&stroke_color;;fill-opacity:1;stroke:none" />
  </g>
</svg>
